<svg xmlns="http://www.w3.org/2000/svg" xmlns:xlink="http://www.w3.org/1999/xlink" width="1366" zoomAndPan="magnify" viewBox="0 0 1024.5 576" height="768" preserveAspectRatio="xMidYMid meet" version="1.0"><defs><clipPath id="d5177f8958"><path d="M 0 197.332031 L 1024 197.332031 L 1024 358 L 0 358 Z M 0 197.332031 " clip-rule="nonzero"/></clipPath><clipPath id="bf4fca2a6d"><path d="M 0 198 L 1024 198 L 1024 354 L 0 354 Z M 0 198 " clip-rule="nonzero"/></clipPath><clipPath id="9dbbace52f"><path d="M 0 201 L 1024 201 L 1024 351 L 0 351 Z M 0 201 " clip-rule="nonzero"/></clipPath><clipPath id="f550940c5d"><path d="M 0 204 L 1024 204 L 1024 347 L 0 347 Z M 0 204 " clip-rule="nonzero"/></clipPath><clipPath id="1d3d8aaeb8"><path d="M 0 207 L 1024 207 L 1024 344 L 0 344 Z M 0 207 " clip-rule="nonzero"/></clipPath><clipPath id="6ec69f2d32"><path d="M 0 210 L 1024 210 L 1024 340 L 0 340 Z M 0 210 " clip-rule="nonzero"/></clipPath><clipPath id="7c33eb2504"><path d="M 0 212 L 1024 212 L 1024 337 L 0 337 Z M 0 212 " clip-rule="nonzero"/></clipPath><clipPath id="413bb85c5f"><path d="M 0 215 L 1024 215 L 1024 333 L 0 333 Z M 0 215 " clip-rule="nonzero"/></clipPath><clipPath id="faabcc78ea"><path d="M 0 218 L 1024 218 L 1024 334 L 0 334 Z M 0 218 " clip-rule="nonzero"/></clipPath><clipPath id="c446f73f8e"><path d="M 0 221 L 1024 221 L 1024 336 L 0 336 Z M 0 221 " clip-rule="nonzero"/></clipPath><clipPath id="ab825b22e0"><path d="M 0 224 L 1024 224 L 1024 338 L 0 338 Z M 0 224 " clip-rule="nonzero"/></clipPath><clipPath id="4e8c8abde9"><path d="M 0 226 L 1024 226 L 1024 340 L 0 340 Z M 0 226 " clip-rule="nonzero"/></clipPath><clipPath id="8e31007cef"><path d="M 0 229 L 1024 229 L 1024 342 L 0 342 Z M 0 229 " clip-rule="nonzero"/></clipPath><clipPath id="9badc2bed8"><path d="M 0 232 L 1024 232 L 1024 344 L 0 344 Z M 0 232 " clip-rule="nonzero"/></clipPath><clipPath id="3fe02a7c8a"><path d="M 0 235 L 1024 235 L 1024 346 L 0 346 Z M 0 235 " clip-rule="nonzero"/></clipPath><clipPath id="a4f6d548c1"><path d="M 0 238 L 1024 238 L 1024 348 L 0 348 Z M 0 238 " clip-rule="nonzero"/></clipPath><clipPath id="4331e87884"><path d="M 0 241 L 1024 241 L 1024 351 L 0 351 Z M 0 241 " clip-rule="nonzero"/></clipPath><clipPath id="357ba75842"><path d="M 0 243 L 1024 243 L 1024 353 L 0 353 Z M 0 243 " clip-rule="nonzero"/></clipPath><clipPath id="0c93b26f8d"><path d="M 0 246 L 1024 246 L 1024 355 L 0 355 Z M 0 246 " clip-rule="nonzero"/></clipPath><clipPath id="ed7ab48d4f"><path d="M 0 249 L 1024 249 L 1024 357 L 0 357 Z M 0 249 " clip-rule="nonzero"/></clipPath><clipPath id="6cdc9bfcca"><path d="M 0 252 L 1024 252 L 1024 359 L 0 359 Z M 0 252 " clip-rule="nonzero"/></clipPath><clipPath id="48153032e9"><path d="M 0 255 L 1024 255 L 1024 361 L 0 361 Z M 0 255 " clip-rule="nonzero"/></clipPath><clipPath id="b23b13402c"><path d="M 0 257 L 1024 257 L 1024 363 L 0 363 Z M 0 257 " clip-rule="nonzero"/></clipPath><clipPath id="7e03a7754f"><path d="M 0 260 L 1024 260 L 1024 365 L 0 365 Z M 0 260 " clip-rule="nonzero"/></clipPath><clipPath id="64689d1657"><path d="M 0 261 L 1024 261 L 1024 368 L 0 368 Z M 0 261 " clip-rule="nonzero"/></clipPath><clipPath id="3ad184be7f"><path d="M 0 259 L 1024 259 L 1024 370 L 0 370 Z M 0 259 " clip-rule="nonzero"/></clipPath><clipPath id="3146bc26e1"><path d="M 0 256 L 1024 256 L 1024 372 L 0 372 Z M 0 256 " clip-rule="nonzero"/></clipPath></defs><g clip-path="url(#d5177f8958)"><path stroke-linecap="butt" transform="matrix(0.355556, 0, 0, 0.355716, 0, -111.946234)" fill="none" stroke-linejoin="miter" d="M -114.005101 1060.000349 C 305.705496 889.844172 394.639802 870.121649 553.50207 944.498402 C 790.070619 1055.256401 1038.702154 1326.463055 1212.000454 1302.995888 C 1420.938395 1274.707904 1462.6315 951.372734 1641.005483 952.997975 C 1810.337719 954.546347 1870.872373 1246.9031 2021.000513 1234.999306 C 2181.587634 1222.271909 2222.116189 879.071458 2361.005318 880.004874 C 2477.119793 880.78455 2490.698891 1088.540904 2673.500363 1165.498277 C 2815.059168 1225.094119 2986.973191 1188.218711 3105.999043 1119.003198 " stroke="#cccccc" stroke-width="1" stroke-opacity="1" stroke-miterlimit="10"/></g><g clip-path="url(#bf4fca2a6d)"><path stroke-linecap="butt" transform="matrix(0.355556, 0, 0, 0.355716, 0, -111.946234)" fill="none" stroke-linejoin="miter" d="M -118.01511 1066.248743 C 292.225275 900.408241 383.675449 879.884079 541.702757 950.340486 C 777.304509 1055.212476 1022.914804 1315.580527 1194.872773 1293.332291 C 1402.2946 1266.504828 1447.074863 957.061078 1622.098016 960.22371 C 1787.925615 963.056901 1852.206606 1246.507771 2003.565214 1234.373368 C 2035.777121 1231.792748 2063.253921 1216.133329 2087.885263 1192.907752 C 2186.23485 1100.225072 2234.673559 887.197665 2346.745067 887.922434 C 2446.753589 888.559353 2476.537518 1031.822179 2591.476456 1124.768412 C 2612.954723 1142.19583 2637.454229 1157.646604 2665.985716 1169.890821 C 2806.654629 1230.024749 2978.052295 1195.027154 3102.900899 1126.415616 " stroke="#cccccc" stroke-width="1" stroke-opacity="1" stroke-miterlimit="10"/></g><g clip-path="url(#9dbbace52f)"><path stroke-linecap="butt" transform="matrix(0.355556, 0, 0, 0.355716, 0, -111.946234)" fill="none" stroke-linejoin="miter" d="M -122.036105 1072.497137 C 278.745053 910.972309 372.711096 889.624545 529.892457 956.171588 C 764.50544 1055.146588 1007.105482 1304.676036 1177.734105 1283.63575 C 1383.628833 1258.290771 1431.496253 962.72746 1603.19055 967.416501 C 1765.502524 971.556474 1833.551825 1246.090479 1986.107943 1233.714486 C 2018.133082 1231.133867 2045.55495 1215.836832 2070.395033 1193.347006 C 2170.524404 1102.684896 2219.171854 895.093263 2332.495803 895.79607 C 2434.481863 896.432988 2469.110761 1034.765183 2583.599261 1128.216559 C 2605.264295 1146.006362 2629.88465 1161.753633 2658.482056 1174.250421 C 2798.261077 1234.922436 2969.142385 1201.824616 3099.813742 1133.79509 " stroke="#cccccc" stroke-width="1" stroke-opacity="1" stroke-miterlimit="10"/></g><g clip-path="url(#f550940c5d)"><path stroke-linecap="butt" transform="matrix(0.355556, 0, 0, 0.355716, 0, -111.946234)" fill="none" stroke-linejoin="miter" d="M -126.0571 1078.745531 C 265.275818 921.536378 361.746743 899.375993 518.093143 962.013672 C 751.739329 1055.102662 991.318132 1293.793508 1160.606423 1273.972153 C 1364.985038 1250.087695 1415.939616 968.404823 1584.29407 974.642236 C 1743.09042 980.078009 1814.886058 1245.69515 1968.661658 1233.077568 C 2000.478057 1230.485967 2027.866966 1215.595242 2052.893816 1193.830186 C 2154.824945 1105.188646 2203.681135 903.032786 2318.235552 903.724612 C 2422.188165 904.328586 2461.859787 1037.510523 2575.711079 1131.69765 C 2597.595839 1149.805913 2622.293099 1165.882624 2650.956423 1178.642965 C 2789.856537 1239.853067 2960.210502 1208.63306 3096.704612 1141.218489 " stroke="#cccccc" stroke-width="1" stroke-opacity="1" stroke-miterlimit="10"/></g><g clip-path="url(#1d3d8aaeb8)"><path stroke-linecap="butt" transform="matrix(0.355556, 0, 0, 0.355716, 0, -111.946234)" fill="none" stroke-linejoin="miter" d="M -130.078095 1085.004906 C 251.806583 932.111428 350.793377 909.138422 506.282843 967.844774 C 738.962233 1055.036774 975.519796 1282.889018 1143.467755 1264.286593 C 1346.330257 1241.884618 1400.371993 974.093168 1565.375617 981.835027 C 1720.656343 988.566601 1796.231277 1245.28884 1951.215373 1232.429667 C 1982.834018 1229.838066 2010.178982 1215.320708 2035.392599 1194.280422 C 2139.169431 1107.681415 2188.179429 910.939365 2303.986288 911.609228 C 2409.905453 912.213203 2454.465989 1040.398621 2567.833883 1135.156778 C 2589.905411 1153.616445 2614.690562 1170.055541 2643.441776 1183.013546 C 2781.29819 1245.091176 2951.27862 1215.430522 3093.595481 1148.608945 " stroke="#cccccc" stroke-width="1" stroke-opacity="1" stroke-miterlimit="10"/></g><g clip-path="url(#6ec69f2d32)"><path stroke-linecap="butt" transform="matrix(0.355556, 0, 0, 0.355716, 0, -111.946234)" fill="none" stroke-linejoin="miter" d="M -134.09909 1091.2533 C 238.337348 942.675496 339.829024 918.88987 494.483529 973.675876 C 726.185136 1054.981867 959.732446 1272.00649 1126.340074 1254.612015 C 1327.675477 1233.670561 1384.782397 980.132916 1546.479137 989.049781 C 1698.233253 997.417577 1777.56551 1244.88253 1933.769087 1231.792748 C 1965.189979 1229.190166 1992.523957 1215.057155 2017.902369 1194.75262 C 2123.546876 1110.207128 2172.68871 918.867907 2289.74801 919.515808 C 2397.644713 920.09782 2447.094165 1043.330644 2559.956688 1138.63787 C 2582.236956 1157.44894 2607.120984 1174.206495 2635.938116 1187.395109 C 2772.882664 1250.076713 2942.379696 1222.249946 3090.508324 1156.032344 " stroke="#cccccc" stroke-width="1" stroke-opacity="1" stroke-miterlimit="10"/></g><g clip-path="url(#7c33eb2504)"><path stroke-linecap="butt" transform="matrix(0.355556, 0, 0, 0.355716, 0, -111.946234)" fill="none" stroke-linejoin="miter" d="M -138.120085 1097.501694 C 224.868112 953.250546 328.864671 928.652299 482.673229 979.51796 C 713.397053 1054.926961 943.93411 1261.123962 1109.201406 1244.937437 C 1309.020696 1225.467485 1369.203787 985.876167 1527.571671 996.275516 C 1675.799176 1005.994019 1758.910729 1244.487201 1916.322802 1231.144848 C 1947.54594 1228.553247 1974.846959 1214.815565 2000.401152 1195.213837 C 2107.935307 1112.743822 2157.187005 926.785468 2275.487759 927.422387 C 2385.351015 927.993418 2439.678395 1046.251686 2552.068506 1142.096998 C 2574.535542 1161.270453 2599.529433 1178.335487 2628.423469 1191.76569 C 2764.445166 1255.040288 2933.447813 1229.036427 3087.41018 1163.4228 " stroke="#cccccc" stroke-width="1" stroke-opacity="1" stroke-miterlimit="10"/></g><g clip-path="url(#413bb85c5f)"><path stroke-linecap="butt" transform="matrix(0.355556, 0, 0, 0.355716, 0, -111.946234)" fill="none" stroke-linejoin="miter" d="M -142.130094 1103.750088 C 211.409864 963.814615 317.92229 938.403747 470.884902 985.349062 C 700.641929 1054.872054 928.14676 1250.219471 1092.08471 1235.262858 C 1290.376901 1217.264409 1353.636164 991.619419 1508.675191 1003.479288 C 1653.376085 1014.548499 1740.266935 1244.091872 1898.876517 1230.507929 C 1929.912887 1227.905347 1957.20292 1214.573976 1982.921908 1195.675055 C 2092.37867 1115.291498 2141.718258 934.71401 2261.260467 935.328966 C 2373.101262 935.878034 2432.295584 1049.194691 2544.213283 1145.578089 C 2566.878073 1165.102948 2591.970841 1182.47546 2620.930795 1196.158234 C 2756.051614 1260.014844 2924.559876 1235.855852 3084.334009 1170.835218 " stroke="#cccccc" stroke-width="1" stroke-opacity="1" stroke-miterlimit="10"/></g><g clip-path="url(#faabcc78ea)"><path stroke-linecap="butt" transform="matrix(0.355556, 0, 0, 0.355716, 0, -111.946234)" fill="none" stroke-linejoin="miter" d="M -146.15109 1109.998482 C 197.940628 974.378683 306.85906 948.484636 459.074602 991.191146 C 687.711024 1055.333271 912.348423 1239.336943 1074.946042 1225.58828 C 1271.733107 1209.050351 1338.068541 997.36267 1489.767724 1010.705023 C 1630.952995 1023.11396 1721.601167 1243.685562 1881.430232 1229.881992 C 1912.257862 1227.257447 1939.536908 1214.343367 1965.420692 1196.158234 C 2076.833019 1117.883099 2126.216553 942.653534 2247.000217 943.246527 C 2360.807564 943.784614 2424.879815 1052.137695 2536.325101 1149.05918 C 2559.176659 1168.935442 2584.37929 1186.604451 2613.405162 1200.539797 C 2747.625102 1264.967438 2915.627993 1242.664295 3081.224879 1178.236655 " stroke="#cccccc" stroke-width="1" stroke-opacity="1" stroke-miterlimit="10"/></g><g clip-path="url(#c446f73f8e)"><path stroke-linecap="butt" transform="matrix(0.355556, 0, 0, 0.355716, 0, -111.946234)" fill="none" stroke-linejoin="miter" d="M -150.172085 1116.246876 C 184.471393 984.953733 295.894707 958.269028 447.275288 997.022248 C 674.944913 1055.311308 896.561074 1228.443434 1057.818361 1215.90272 C 1253.078326 1200.825313 1322.489931 1003.072978 1470.871244 1017.897814 C 1608.518918 1031.646477 1702.946387 1243.279251 1863.994934 1229.22311 C 1894.624809 1226.598565 1921.903856 1214.079814 1947.930461 1196.597489 C 2061.298355 1120.441756 2110.725834 950.549132 2232.761939 951.131144 C 2348.535838 951.658249 2417.475031 1055.069718 2528.458892 1152.507328 C 2551.508203 1172.745974 2576.820698 1190.722461 2605.912488 1204.899397 C 2739.220563 1269.898068 2906.718083 1249.450776 3078.137721 1185.62711 " stroke="#cccccc" stroke-width="1" stroke-opacity="1" stroke-miterlimit="10"/></g><g clip-path="url(#ab825b22e0)"><path stroke-linecap="butt" transform="matrix(0.355556, 0, 0, 0.355716, 0, -111.946234)" fill="none" stroke-linejoin="miter" d="M -154.19308 1122.49527 C 171.002158 995.517802 284.941341 968.05342 435.464988 1002.864332 C 662.15683 1055.289345 880.762737 1217.549924 1040.679693 1206.228142 C 1234.423545 1192.633218 1306.911321 1008.805248 1451.963778 1025.123549 C 1586.084841 1040.211938 1684.280619 1242.894904 1846.537662 1228.586191 C 1876.969784 1225.961646 1904.259817 1213.871168 1930.429244 1197.080669 C 2045.785663 1123.066301 2095.235115 958.488655 2218.501688 959.048704 C 2336.253126 959.564828 2410.048275 1058.034686 2520.570711 1155.988419 C 2543.806789 1176.589451 2569.229147 1194.862434 2598.386855 1209.291941 C 2730.805037 1274.83968 2897.797187 1256.259219 3075.039577 1193.039528 " stroke="#cccccc" stroke-width="1" stroke-opacity="1" stroke-miterlimit="10"/></g><g clip-path="url(#4e8c8abde9)"><path stroke-linecap="butt" transform="matrix(0.355556, 0, 0, 0.355716, 0, -111.946234)" fill="none" stroke-linejoin="miter" d="M -158.214075 1128.754645 C 157.532923 1006.092852 273.987974 977.815849 423.654688 1008.695434 C 649.401706 1055.256401 864.975387 1206.656415 1023.552011 1196.553563 C 1215.757778 1184.41916 1291.332711 1014.515555 1433.056312 1032.327321 C 1563.661751 1048.744455 1665.625838 1242.477612 1829.102363 1227.949272 C 1859.325745 1225.324727 1886.626764 1213.64056 1912.939014 1197.541886 C 2030.316917 1125.701827 2079.755382 966.395234 2204.26341 966.955284 C 2323.9814 967.449445 2402.632505 1060.999653 2512.704501 1159.458529 C 2536.127348 1180.421945 2561.670555 1198.980444 2590.894181 1213.673504 C 2722.400498 1279.781293 2888.887276 1263.067662 3071.95242 1200.451946 " stroke="#cccccc" stroke-width="1" stroke-opacity="1" stroke-miterlimit="10"/></g><g clip-path="url(#8e31007cef)"><path stroke-linecap="butt" transform="matrix(0.355556, 0, 0, 0.355716, 0, -111.946234)" fill="none" stroke-linejoin="miter" d="M -162.23507 1135.003039 C 144.063688 1016.65692 263.034608 987.58926 411.855374 1014.526536 C 636.62461 1055.234439 849.177051 1195.773887 1006.42433 1186.868004 C 1197.113983 1176.205103 1275.754102 1020.214881 1414.148845 1039.531094 C 1541.216687 1057.255009 1646.960071 1242.071302 1811.645092 1227.290391 C 1841.67072 1224.654864 1868.993712 1213.409951 1895.426811 1197.992122 C 2014.837184 1128.359316 2064.24269 974.312795 2189.992173 974.828919 C 2311.687702 975.312099 2395.183776 1063.942657 2504.805333 1162.906676 C 2528.414947 1184.232477 2554.068017 1203.087473 2583.357561 1218.033104 C 2713.973987 1284.678979 2879.955394 1269.865124 3068.84329 1207.83142 " stroke="#cccccc" stroke-width="1" stroke-opacity="1" stroke-miterlimit="10"/></g><g clip-path="url(#9badc2bed8)"><path stroke-linecap="butt" transform="matrix(0.355556, 0, 0, 0.355716, 0, -111.946234)" fill="none" stroke-linejoin="miter" d="M -166.245079 1141.251433 C 130.583466 1027.220989 252.081241 997.351689 400.045074 1020.36862 C 623.858499 1055.190513 833.389701 1184.880377 989.285662 1177.204407 C 1178.459202 1168.013008 1260.175492 1025.925188 1395.252365 1046.745847 C 1518.804583 1065.787526 1628.30529 1241.675973 1794.198807 1226.664453 C 1824.026681 1224.017945 1851.371645 1213.212287 1877.936581 1198.46432 C 1999.401397 1131.060731 2048.751971 982.241337 2175.753895 982.735498 C 2299.415976 983.207697 2387.746034 1066.918606 2496.928138 1166.376786 C 2520.724519 1188.064972 2546.509425 1207.205483 2575.864887 1222.414667 C 2705.580434 1289.598629 2871.045484 1276.662586 3065.745146 1215.243839 " stroke="#cccccc" stroke-width="1" stroke-opacity="1" stroke-miterlimit="10"/></g><g clip-path="url(#3fe02a7c8a)"><path stroke-linecap="butt" transform="matrix(0.355556, 0, 0, 0.355716, 0, -111.946234)" fill="none" stroke-linejoin="miter" d="M -170.266074 1147.499827 C 117.114231 1037.785057 241.127874 1007.103137 388.245761 1026.199722 C 611.114362 1055.124625 817.602351 1173.975887 972.15798 1167.518847 C 1159.815408 1159.798951 1244.596882 1031.624514 1376.344899 1053.960601 C 1496.370506 1074.309061 1609.650509 1241.269662 1776.763508 1226.016553 C 1806.393628 1223.370045 1833.749579 1213.014622 1860.44635 1198.925537 C 1983.976595 1133.79509 2033.261252 990.169879 2161.504631 990.653059 C 2287.14425 991.103295 2380.308292 1069.905536 2489.050942 1169.857877 C 2513.045078 1191.908448 2538.928861 1211.345456 2568.339254 1226.796229 C 2697.175895 1294.518278 2862.135574 1283.482011 3062.647002 1222.645275 " stroke="#cccccc" stroke-width="1" stroke-opacity="1" stroke-miterlimit="10"/></g><g clip-path="url(#a4f6d548c1)"><path stroke-linecap="butt" transform="matrix(0.355556, 0, 0, 0.355716, 0, -111.946234)" fill="none" stroke-linejoin="miter" d="M -174.287069 1153.748221 C 103.644996 1048.360107 230.185494 1016.854585 376.43546 1032.041806 C 598.337265 1055.0807 801.804015 1163.10434 955.019312 1157.844269 C 1141.14964 1151.584893 1229.007286 1037.312859 1357.437433 1061.175355 C 1473.925443 1082.819616 1590.984742 1240.874333 1759.306237 1225.368653 C 1788.738603 1222.711163 1816.127513 1212.794995 1842.945134 1199.386754 C 1968.573767 1136.551411 2017.759547 998.08744 2147.255367 998.548657 C 2274.861538 998.987912 2372.859563 1072.892466 2481.173747 1173.317005 C 2505.343663 1195.740943 2531.359282 1215.452484 2560.824608 1231.166811 C 2688.782342 1299.404983 2853.214677 1290.268492 3059.548858 1230.046712 " stroke="#cccccc" stroke-width="1" stroke-opacity="1" stroke-miterlimit="10"/></g><g clip-path="url(#4331e87884)"><path stroke-linecap="butt" transform="matrix(0.355556, 0, 0, 0.355716, 0, -111.946234)" fill="none" stroke-linejoin="miter" d="M -178.308065 1159.996615 C 90.164774 1058.935157 219.232127 1026.595051 364.636147 1037.872908 C 585.582141 1055.00383 786.005679 1152.199849 937.89163 1148.158709 C 1122.49486 1143.381817 1213.439663 1042.979241 1338.540953 1068.379127 C 1451.513339 1091.319188 1572.329961 1240.457042 1741.870938 1224.731734 C 1771.094564 1222.074245 1798.516433 1212.619293 1825.454903 1199.847971 C 1953.181925 1139.340677 2002.279814 1006.005001 2133.006102 1006.455237 C 2262.600799 1006.872528 2365.42182 1075.868415 2473.296552 1176.787115 C 2497.664222 1199.573437 2523.80069 1219.559513 2553.331934 1235.548374 C 2680.399775 1304.313651 2844.304767 1297.076935 3056.472687 1237.448149 " stroke="#cccccc" stroke-width="1" stroke-opacity="1" stroke-miterlimit="10"/></g><g clip-path="url(#357ba75842)"><path stroke-linecap="butt" transform="matrix(0.355556, 0, 0, 0.355716, 0, -111.946234)" fill="none" stroke-linejoin="miter" d="M -182.32906 1166.245009 C 76.695539 1069.499226 208.278761 1036.335518 352.825847 1043.714992 C 572.816031 1054.926961 770.207343 1141.30634 920.752963 1138.495112 C 1103.840079 1135.178741 1197.850067 1048.645623 1319.6225 1075.604862 C 1429.068276 1099.818761 1553.664194 1240.072694 1724.40268 1224.094815 C 1753.428553 1221.426344 1780.88338 1212.443592 1807.9427 1200.331151 C 1937.779096 1142.184849 1986.756136 1013.944524 2118.734865 1014.372797 C 2250.285128 1014.779108 2357.929146 1078.877307 2465.386397 1180.279188 C 2489.929848 1203.427895 2516.187167 1223.699486 2545.784328 1239.940918 C 2671.98425 1309.211338 2835.361898 1303.89636 3053.341584 1244.871548 " stroke="#cccccc" stroke-width="1" stroke-opacity="1" stroke-miterlimit="10"/></g><g clip-path="url(#0c93b26f8d)"><path stroke-linecap="butt" transform="matrix(0.355556, 0, 0, 0.355716, 0, -111.946234)" fill="none" stroke-linejoin="miter" d="M -186.350055 1172.504385 C 63.226304 1080.063294 197.325394 1046.065003 341.026533 1049.546094 C 560.060907 1054.850091 754.419993 1130.434794 903.625281 1128.820534 C 1085.196284 1126.975665 1182.29343 1054.322986 1300.72602 1082.819616 C 1406.645185 1108.307353 1535.0204 1239.677365 1706.967382 1223.468877 C 1735.7955 1220.800407 1763.294273 1212.278871 1790.463456 1200.80335 C 1922.420213 1145.061965 1971.276403 1021.873066 2104.496587 1022.279377 C 2238.035375 1022.674706 2350.491404 1081.8862 2457.531174 1183.749297 C 2482.250407 1207.271371 2508.639561 1227.806515 2538.30264 1244.32248 C 2663.634643 1314.087062 2826.462974 1310.704803 3050.265413 1252.272985 " stroke="#cccccc" stroke-width="1" stroke-opacity="1" stroke-miterlimit="10"/></g><g clip-path="url(#ed7ab48d4f)"><path stroke-linecap="butt" transform="matrix(0.355556, 0, 0, 0.355716, 0, -111.946234)" fill="none" stroke-linejoin="miter" d="M -190.37105 1178.752778 C 49.757069 1090.627363 186.383014 1055.805469 329.216233 1055.377196 C 547.294796 1054.740277 738.621657 1119.530303 886.486613 1119.134974 C 1066.541503 1118.750626 1166.71482 1059.945442 1281.818553 1090.023388 C 1384.233081 1116.773981 1516.354632 1239.260073 1689.521097 1222.809996 C 1718.151461 1220.130544 1745.672207 1212.103169 1772.96224 1201.253586 C 1907.050344 1147.950063 1955.774698 1029.779646 2090.236337 1030.174975 C 2225.741677 1030.548341 2343.009716 1084.884111 2449.642992 1187.208426 C 2474.538006 1211.103866 2501.058996 1231.924525 2530.777007 1248.693062 C 2655.24109 1318.962786 2817.542078 1317.502265 3047.156283 1259.674422 " stroke="#cccccc" stroke-width="1" stroke-opacity="1" stroke-miterlimit="10"/></g><g clip-path="url(#6cdc9bfcca)"><path stroke-linecap="butt" transform="matrix(0.355556, 0, 0, 0.355716, 0, -111.946234)" fill="none" stroke-linejoin="miter" d="M -194.381059 1185.001172 C 36.29882 1101.202413 175.440634 1065.523973 317.427906 1061.21928 C 534.539672 1054.641445 722.845293 1108.636793 869.369918 1109.460395 C 1047.897709 1110.54755 1151.158183 1065.589861 1262.93306 1097.22716 C 1361.820977 1125.229629 1497.710838 1238.864744 1672.085798 1222.173077 C 1700.518409 1219.493625 1728.083099 1211.938449 1755.482996 1201.714803 C 1891.713433 1150.893068 1940.305951 1037.686225 2076.009045 1038.070573 C 2213.480937 1038.443939 2335.560987 1087.882023 2441.776783 1190.667554 C 2466.858565 1214.93636 2493.522377 1236.020572 2523.284333 1253.063643 C 2646.880496 1323.816547 2808.632168 1324.288746 3044.080112 1267.064877 " stroke="#cccccc" stroke-width="1" stroke-opacity="1" stroke-miterlimit="10"/></g><g clip-path="url(#48153032e9)"><path stroke-linecap="butt" transform="matrix(0.355556, 0, 0, 0.355716, 0, -111.946234)" fill="none" stroke-linejoin="miter" d="M -198.402054 1191.249566 C 22.829585 1111.766481 164.465294 1074.94598 305.628592 1067.050382 C 521.751589 1054.103359 707.046957 1097.754265 852.242236 1099.774836 C 1029.253914 1102.344474 1135.601546 1071.212318 1244.025593 1104.441914 C 1339.408872 1133.685276 1479.045071 1238.458434 1654.650499 1221.525177 C 1682.885356 1218.834743 1710.483006 1211.78471 1737.992765 1202.17602 C 1876.35455 1153.879998 1924.815232 1045.614767 2061.759781 1045.977152 C 2201.209212 1046.328556 2328.0793 1090.901897 2433.910574 1194.148646 C 2459.15715 1218.790818 2485.963785 1240.138582 2515.780673 1257.445206 C 2638.519902 1328.692271 2799.722258 1331.10817 3040.992954 1274.477296 " stroke="#cccccc" stroke-width="1" stroke-opacity="1" stroke-miterlimit="10"/></g><g clip-path="url(#b23b13402c)"><path stroke-linecap="butt" transform="matrix(0.355556, 0, 0, 0.355716, 0, -111.946234)" fill="none" stroke-linejoin="miter" d="M -202.423049 1197.49796 C 9.360349 1122.341531 153.511928 1084.70841 293.818292 1072.892466 C 508.974493 1054.048452 691.248621 1086.860756 835.103568 1090.100257 C 1010.588147 1094.130417 1120.044909 1076.812812 1225.107141 1111.645686 C 1316.985782 1142.118961 1460.379304 1238.052124 1637.182241 1220.877276 C 1665.219344 1218.175862 1692.849953 1211.630971 1720.469576 1202.637237 C 1860.98468 1156.899872 1909.30254 1053.543309 2047.488544 1053.883731 C 2188.915513 1054.224154 2320.575639 1093.910789 2426.011406 1197.618755 C 2451.44475 1222.634294 2478.372234 1244.245611 2508.25504 1261.826769 C 2630.12635 1333.546032 2790.790375 1337.905632 3037.883824 1281.889714 " stroke="#cccccc" stroke-width="1" stroke-opacity="1" stroke-miterlimit="10"/></g><g clip-path="url(#7e03a7754f)"><path stroke-linecap="butt" transform="matrix(0.355556, 0, 0, 0.355716, 0, -111.946234)" fill="none" stroke-linejoin="miter" d="M -206.444044 1203.746354 C -4.119872 1132.9056 142.536588 1094.459857 282.018978 1078.723568 C 496.197396 1053.982564 675.461271 1075.956265 817.975886 1080.414698 C 991.944352 1085.916359 1104.510245 1082.402324 1206.221647 1118.86044 C 1294.59565 1150.541664 1441.724523 1237.645813 1619.746943 1220.240357 C 1647.586292 1217.538943 1675.24986 1211.488213 1702.990332 1203.098454 C 1845.636783 1159.974653 1893.822808 1061.46087 2033.250266 1061.779329 C 2176.643788 1062.097789 2312.940143 1097.095384 2418.145197 1201.077884 C 2443.69939 1226.510714 2470.846601 1248.286751 2500.751379 1266.19735 C 2621.908578 1338.180166 2781.880465 1344.714076 3034.78568 1289.280169 " stroke="#cccccc" stroke-width="1" stroke-opacity="1" stroke-miterlimit="10"/></g><g clip-path="url(#64689d1657)"><path stroke-linecap="butt" transform="matrix(0.355556, 0, 0, 0.355716, 0, -111.946234)" fill="none" stroke-linejoin="miter" d="M -210.46504 1209.994748 C -17.589107 1143.469668 131.583222 1104.222287 270.208678 1084.55467 C 483.409313 1053.927657 659.662935 1065.073737 800.837219 1070.751101 C 973.278585 1077.724264 1088.964594 1087.980855 1187.314181 1126.075193 C 1272.205519 1158.975349 1423.069742 1237.261466 1602.300658 1219.61442 C 1629.942253 1216.902024 1657.63878 1211.367418 1685.489115 1203.581634 C 1830.2779 1163.093359 1878.332088 1069.389412 2019.001001 1069.69689 C 2164.361076 1070.01535 2305.502401 1100.093295 2410.257015 1204.569956 C 2436.008962 1230.365172 2463.277023 1252.426724 2493.236732 1270.600875 C 2613.515025 1343.110797 2772.970555 1351.544482 3031.698523 1296.71455 " stroke="#cccccc" stroke-width="1" stroke-opacity="1" stroke-miterlimit="10"/></g><g clip-path="url(#3ad184be7f)"><path stroke-linecap="butt" transform="matrix(0.355556, 0, 0, 0.355716, 0, -111.946234)" fill="none" stroke-linejoin="miter" d="M -214.475048 1216.254124 C -31.058342 1154.044718 120.618869 1113.973735 258.409365 1090.396754 C 470.643203 1053.883731 643.864598 1054.191209 783.709537 1061.065541 C 954.634791 1069.510207 1073.495847 1093.394665 1168.406714 1133.289947 C 1249.870319 1167.255294 1404.414961 1236.855155 1584.865359 1218.955538 C 1612.298214 1216.254124 1640.0277 1211.224661 1668.009871 1204.03187 C 1814.94099 1166.223046 1862.852356 1077.295991 2004.762723 1077.592488 C 2152.100336 1077.888985 2298.064658 1103.0363 2402.390806 1208.018103 C 2428.318534 1234.175704 2455.707444 1256.533753 2485.733072 1274.949494 C 2605.121472 1347.997502 2764.049659 1358.309 3028.600379 1304.083043 " stroke="#cccccc" stroke-width="1" stroke-opacity="1" stroke-miterlimit="10"/></g><g clip-path="url(#3146bc26e1)"><path stroke-linecap="butt" transform="matrix(0.355556, 0, 0, 0.355716, 0, -111.946234)" fill="none" stroke-linejoin="miter" d="M -218.496044 1222.502518 C 552.095821 966.076775 934.540801 1043.264756 1149.499248 1140.504701 C 1239.125692 1181.036901 1435.03385 1255.21599 1650.497668 1204.504068 C 1799.560134 1169.407641 1847.339664 1085.224533 1990.502473 1085.499067 C 2139.806638 1085.784583 2290.626916 1106.02323 2394.502624 1211.499195 C 2523.50406 1342.495841 2686.4862 1378.745311 3025.502235 1311.495461 " stroke="#cccccc" stroke-width="1" stroke-opacity="1" stroke-miterlimit="10"/></g></svg>